<?xml version="1.0" encoding="UTF-8"?>
<svg version="1.1" xmlns="http://www.w3.org/2000/svg" width="425" height="309">
<path d="M0 0 C9.42898777 -0.23475463 18.68241288 -0.41467783 27.85742188 2.06201172 C28.86289063 2.33013672 29.86835938 2.59826172 30.90429688 2.87451172 C42.39057238 6.30325068 51.22393023 13.16368395 57.10742188 23.74951172 C62.64186977 35.79228031 63.01530844 49.43568636 63.06054688 62.43310547 C63.06624695 63.71000748 63.07194702 64.98690948 63.07781982 66.30250549 C63.08723649 68.99459385 63.09415113 71.68657163 63.09765625 74.37866211 C63.10314414 77.80574582 63.12720491 81.23243296 63.1556282 84.65939236 C63.17886588 87.95893261 63.18071009 91.25849489 63.18554688 94.55810547 C63.19789368 95.77711044 63.21024048 96.99611542 63.22296143 98.25205994 C63.18478928 112.9394352 63.18478928 112.9394352 58.58233643 118.64183044 C54.54126327 122.36169974 50.05651768 124.06751791 44.58789062 124.05810547 C38.51676838 123.58490025 34.76147558 122.17762694 30.60742188 117.56201172 C28.85742188 115.06201172 28.85742188 115.06201172 27.85742188 112.06201172 C27.37273437 112.44873047 26.88804687 112.83544922 26.38867188 113.23388672 C13.96907356 122.88295926 0.57651953 126.74063969 -15.14257812 125.06201172 C-27.55559186 122.72278117 -36.66467923 118.34886756 -44.14257812 108.06201172 C-49.92696943 98.56158721 -50.66717406 87.09977116 -48.61132812 76.26123047 C-47.92351015 74.09684672 -47.12508879 72.10784562 -46.14257812 70.06201172 C-45.58570312 68.86576172 -45.02882813 67.66951172 -44.45507812 66.43701172 C-38.5983735 56.83914217 -27.70941963 51.68700241 -17.14257812 49.06201172 C-11.74077028 48.24558942 -6.47687656 47.86812583 -1.01757812 47.87451172 C-0.28692139 47.87531738 0.44373535 47.87612305 1.1965332 47.87695312 C10.32841022 47.97798919 19.21454579 48.97804694 27.85742188 52.06201172 C26.66479141 44.29638216 26.66479141 44.29638216 23.85742188 37.06201172 C22.14319298 35.82805131 22.14319298 35.82805131 19.85742188 35.06201172 C18.90867187 34.54638672 17.95992188 34.03076172 16.98242188 33.49951172 C6.00934999 28.9039517 -7.32645532 31.05651976 -18.39257812 34.24951172 C-24.36638411 35.54383635 -29.00664352 35.09042468 -34.51757812 32.43701172 C-38.44715056 28.88168428 -39.76439194 25.28385557 -40.64257812 20.12451172 C-39.70203514 14.36368594 -36.82025667 10.37497754 -32.26757812 6.81201172 C-22.3741539 1.95170506 -10.87785543 0.3148331 0 0 Z M-12.62695312 76.70654297 C-15.28715194 80.74239255 -15.81392342 84.36259465 -15.14257812 89.06201172 C-13.02747448 94.26164151 -10.81230059 97.16288529 -5.60742188 99.40185547 C3.30715732 101.7894369 11.83807546 100.38705248 19.85742188 96.06201172 C24.6357662 93.1534543 27.21520915 89.35657733 28.85742188 84.06201172 C29.15950025 80.69599556 29.10585737 77.42969294 28.85742188 74.06201172 C16.60929608 68.68244274 -2.53837292 65.52945806 -12.62695312 76.70654297 Z " fill="#EE3124" transform="translate(130.142578125,66.93798828125)"/>
<path d="M0 0 C8.64702242 8.40682735 12.89892452 18.69591424 13.39717102 30.74717712 C13.40701523 32.06287186 13.41685944 33.37856659 13.42700195 34.73413086 C13.43357315 35.46503433 13.44014435 36.19593781 13.44691467 36.94898987 C13.46650845 39.3501091 13.47827592 41.75116636 13.48828125 44.15234375 C13.49235678 44.976579 13.4964323 45.80081425 13.50063133 46.65002632 C13.52142782 51.00878773 13.53575989 55.3675182 13.54516602 59.72631836 C13.55624665 64.21641648 13.59068372 68.7060213 13.63033772 73.19594479 C13.65652224 76.66102497 13.66485922 80.1259875 13.66844749 83.59115791 C13.67330483 85.24610304 13.68489448 86.90104321 13.70348549 88.55589104 C13.72792844 90.87481527 13.72690379 93.19246003 13.7199707 95.51147461 C13.72583694 96.82796494 13.73170319 98.14445526 13.73774719 99.50083923 C12.98114542 105.21965039 10.52603996 108.78993243 6.625 113.0625 C1.44865089 116.32168277 -3.18100569 116.63434038 -9.18359375 115.8828125 C-14.80717313 114.49825501 -17.48564928 111.79214073 -20.51922607 106.98431396 C-22.90457649 101.56383729 -22.51296621 95.96049139 -22.4140625 90.1328125 C-22.4151593 88.78196597 -22.41948381 87.43111864 -22.42684937 86.08029175 C-22.44017575 82.54309538 -22.42156492 79.00692448 -22.39239502 75.46984863 C-22.34682672 69.8184205 -22.33163404 64.16755573 -22.35194016 58.5159874 C-22.35157279 56.56250706 -22.32528301 54.60908553 -22.29824829 52.65579224 C-22.3005557 44.72560977 -23.42628583 38.40387661 -26.75 31.1875 C-27.08448151 30.44895782 -27.41896301 29.71041565 -27.76358032 28.94949341 C-29.45013334 25.93688593 -32.15546144 25.64554549 -35.3203125 24.73046875 C-42.66063669 23.09010691 -48.25348942 24.35622453 -54.75 28.1875 C-59.78518625 32.53553142 -61.23148646 38.78294237 -61.75 45.1875 C-61.88834195 49.70832406 -61.88692123 54.22733244 -61.890625 58.75 C-61.90894345 61.42970415 -61.92850795 64.10937799 -61.94921875 66.7890625 C-61.97956602 70.99582886 -62.00231535 75.20229333 -62.00048828 79.40917969 C-61.99985208 82.16294629 -62.01234374 84.91604455 -62.03948975 87.66967773 C-62.06474305 90.25500999 -62.07127357 92.84061087 -62.05670166 95.42602539 C-62.15821593 102.71163596 -62.70396587 106.80151852 -67.75 112.1875 C-72.05484775 115.8773695 -77.23796581 116.32193986 -82.75 116.1875 C-88.31528339 115.10536156 -92.25094499 112.71568884 -95.75 108.1875 C-97.74562851 102.66540667 -98.03682231 97.71093618 -98.00878906 91.875 C-98.0122937 90.96838623 -98.01579834 90.06177246 -98.01940918 89.12768555 C-98.02817133 86.14754452 -98.02239684 83.16764321 -98.015625 80.1875 C-98.01697323 78.10677037 -98.01891509 76.02604105 -98.02142334 73.9453125 C-98.02436713 69.59111523 -98.02010088 65.23700019 -98.01074219 60.8828125 C-97.99934816 55.31113132 -98.00591161 49.73964286 -98.01788712 44.16796875 C-98.02512579 39.87335772 -98.02280855 35.57879211 -98.01763153 31.28417969 C-98.01630059 29.230143 -98.01792322 27.17610213 -98.02259064 25.12207031 C-98.02768886 22.24793625 -98.01989933 19.37411115 -98.00878906 16.5 C-98.01283752 15.65719482 -98.01688599 14.81438965 -98.02105713 13.94604492 C-97.98003813 8.1969398 -97.75651651 2.610955 -93.9453125 -1.9921875 C-92.92050781 -2.83136719 -92.92050781 -2.83136719 -91.875 -3.6875 C-91.19695312 -4.26242188 -90.51890625 -4.83734375 -89.8203125 -5.4296875 C-85.5894677 -8.25557252 -80.72031553 -8.43491701 -75.75 -7.8125 C-69.80118048 -6.09249141 -66.71134622 -3.10812462 -63.66015625 2.1875 C-62.75539954 4.17563492 -62.2022659 6.05470925 -61.75 8.1875 C-61.29625 7.5275 -60.8425 6.8675 -60.375 6.1875 C-59.83875 5.5275 -59.3025 4.8675 -58.75 4.1875 C-58.09 4.1875 -57.43 4.1875 -56.75 4.1875 C-56.49476563 3.58035156 -56.23953125 2.97320312 -55.9765625 2.34765625 C-52.75321171 -3.32913671 -44.7746566 -6.07204365 -38.75 -7.8125 C-24.5770593 -10.5964705 -11.98641664 -7.90013824 0 0 Z " fill="#EE3124" transform="translate(388.75,74.8125)"/>
<path d="M0 0 C4.95170091 2.84264311 8.55208681 6.46876044 10.375 11.9375 C10.47034463 13.4838905 10.50988723 15.03404171 10.51544189 16.58335876 C10.52115204 17.53776855 10.52686218 18.49217834 10.53274536 19.47550964 C10.53386322 20.52120621 10.53498108 21.56690277 10.53613281 22.64428711 C10.54358017 24.29852188 10.54358017 24.29852188 10.55117798 25.98617554 C10.56581693 29.64573791 10.57260652 33.30525686 10.578125 36.96484375 C10.58387753 39.51013693 10.58963525 42.05543011 10.59539795 44.60072327 C10.60456976 49.26287413 10.61086634 53.92501198 10.6138947 58.58716959 C10.61836103 65.42421821 10.63584017 72.26106547 10.6648953 79.09805292 C10.68924719 85.036987 10.69684557 90.97587183 10.69857025 96.91485786 C10.70158602 99.43088434 10.70957794 101.9469102 10.72275543 104.46290398 C10.73993751 107.99747507 10.73790524 111.53156543 10.73144531 115.06616211 C10.74526749 116.60737984 10.74526749 116.60737984 10.7593689 118.17973328 C10.69587026 129.35112944 8.72544439 140.40858879 0.70703125 148.65234375 C-7.76664117 156.30296631 -17.89370485 158.47440307 -29.13671875 158.1875 C-34.91394546 157.6070565 -39.96721408 156.55485212 -44.1875 152.4375 C-46.72620351 148.02236346 -47.15587533 143.94289601 -46.625 138.9375 C-45.0131641 134.66613486 -43.45421848 132.36333998 -39.625 129.9375 C-36.8293358 129.13410158 -34.03317672 128.5565319 -31.18359375 127.9765625 C-27.67287014 126.55083352 -27.15601591 125.41975356 -25.625 121.9375 C-25.1894501 118.38852975 -25.22877708 114.86324498 -25.25610352 111.29150391 C-25.25233704 110.21937149 -25.24857056 109.14723907 -25.24468994 108.0426178 C-25.23825948 105.71710713 -25.2385856 103.39157017 -25.24487495 101.06605911 C-25.25398105 97.38381632 -25.24376598 93.70208318 -25.22825623 90.01986694 C-25.18814426 79.55166421 -25.18695404 69.08350116 -25.18920898 58.61523438 C-25.1892601 52.20975655 -25.17008602 45.80455341 -25.13987541 39.39915085 C-25.12904972 35.77459743 -25.1411819 32.15056811 -25.15370178 28.52603149 C-25.14479649 26.29811078 -25.13472181 24.07019434 -25.12329102 21.84228516 C-25.13303452 20.83737534 -25.14277802 19.83246552 -25.15281677 18.79710388 C-25.08981832 12.63779579 -24.23469527 8.97610898 -20.625 3.9375 C-14.22986088 -1.53202687 -7.93832195 -2.32674954 0 0 Z " fill="#EE3124" transform="translate(68.625,68.0625)"/>
<path d="M0 0 C3.4375 1.75 3.4375 1.75 6 4 C6.7425 4.5775 7.485 5.155 8.25 5.75 C13.27352238 12.20881449 12.2903876 21.41554505 12.2746582 29.15795898 C12.27976913 30.46140259 12.28488007 31.76484619 12.29014587 33.10778809 C12.30346929 36.66361923 12.30412208 40.21934366 12.30158257 43.77519488 C12.30050845 46.75217981 12.30540742 49.72914353 12.310188 52.70612389 C12.32125989 59.73321676 12.3217335 66.76025616 12.31567383 73.78735352 C12.30963376 81.01853124 12.32195114 88.24951441 12.3432439 95.48065895 C12.36089816 101.70682427 12.36685529 107.93292787 12.36360615 114.15911728 C12.36179943 117.86996609 12.36436815 121.58067604 12.37832069 125.291502 C12.39330826 129.4320107 12.38389559 133.57212682 12.37231445 137.71264648 C12.38378006 139.53878227 12.38378006 139.53878227 12.39547729 141.40180969 C12.34583447 149.44679753 11.75317446 156.40557779 6.75 162.9375 C1.24567791 167.06574157 -4.0214305 167.40849476 -10.63671875 166.53515625 C-15.57043564 165.41793441 -18.25101737 162.95141036 -21.3125 159.0625 C-23.82196424 154.50828712 -24.12482168 150.47623164 -24.14044189 145.33416748 C-24.14900711 143.63950096 -24.14900711 143.63950096 -24.15774536 141.91059875 C-24.15886322 140.68036484 -24.15998108 139.45013092 -24.16113281 138.18261719 C-24.16609772 136.87961166 -24.17106262 135.57660614 -24.17617798 134.2341156 C-24.18926493 130.66573986 -24.19573975 127.09738291 -24.20018864 123.52898693 C-24.20312551 121.29648527 -24.20723148 119.06398867 -24.21169281 116.83148956 C-24.22535834 109.83746101 -24.23502946 102.84344412 -24.2388947 95.84940314 C-24.24337248 87.7926572 -24.26091125 79.73608116 -24.2898953 71.67938685 C-24.3115557 65.44055232 -24.32160131 59.20176544 -24.32293582 52.96289372 C-24.32398078 49.24192718 -24.32982241 45.52112054 -24.34775543 41.80019379 C-24.36739269 37.64501234 -24.36292984 33.49018377 -24.35644531 29.33496094 C-24.37026749 27.50175545 -24.37026749 27.50175545 -24.3843689 25.6315155 C-24.31193118 10.7898404 -24.31193118 10.7898404 -19.61882401 5.41952133 C-13.45677813 0.04658634 -7.98989433 -0.95090179 0 0 Z " fill="#EE3124" transform="translate(224,24)"/>
<path d="M0 0 C4.95170091 2.84264311 8.55208681 6.46876044 10.375 11.9375 C10.48225844 14.98944768 10.53227831 18.01889069 10.53613281 21.07128906 C10.54358017 22.47422462 10.54358017 22.47422462 10.55117798 23.90550232 C10.56580193 27.00471733 10.5726025 30.10388113 10.578125 33.203125 C10.58387688 35.35683188 10.58963461 37.51053875 10.59539795 39.66424561 C10.60590903 44.18355549 10.61175079 48.70284758 10.61523438 53.22216797 C10.62071502 59.00699133 10.64473357 64.79157882 10.67320633 70.57632828 C10.69185177 75.02706585 10.69703936 79.47774687 10.69857025 83.9285202 C10.7015937 86.06072019 10.70961182 88.19291925 10.72275543 90.32508087 C10.73985322 93.31227929 10.73792627 96.298905 10.73144531 99.28613281 C10.74526749 100.60184517 10.74526749 100.60184517 10.7593689 101.94413757 C10.71264805 108.83554747 9.60260675 113.65926583 4.625 118.75 C-1.11949102 122.61648434 -5.81603086 123.23059041 -12.51171875 122.421875 C-17.44304886 121.29158862 -19.71132757 119.01664141 -22.625 114.9375 C-24.28644318 112.06946922 -24.87712925 110.01435076 -24.89242554 106.7071991 C-24.90095551 105.87040115 -24.90948547 105.03360321 -24.91827393 104.17144775 C-24.91691437 102.8069046 -24.91691437 102.8069046 -24.91552734 101.41479492 C-24.92224457 100.45009781 -24.92896179 99.4854007 -24.93588257 98.49147034 C-24.95489018 95.30025083 -24.95878831 92.10924136 -24.9609375 88.91796875 C-24.96736396 86.6984295 -24.97409221 84.4788911 -24.98110962 82.25935364 C-24.99308963 77.60476722 -24.99678974 72.95025505 -24.99560547 68.2956543 C-24.99540235 62.33701068 -25.02269455 56.37884438 -25.05714989 50.42031384 C-25.07941033 45.83488283 -25.08344325 41.2495668 -25.08238602 36.6640873 C-25.08474364 34.46768869 -25.0935762 32.27128699 -25.10905075 30.07494164 C-25.12869093 26.99908626 -25.12287973 23.92426136 -25.11083984 20.84838867 C-25.12207886 19.94476593 -25.13331787 19.04114319 -25.14489746 18.11013794 C-25.08639772 12.21581467 -24.02641523 8.78425838 -20.625 3.9375 C-14.22986088 -1.53202687 -7.93832195 -2.32674954 0 0 Z " fill="#EE3124" transform="translate(271.625,68.0625)"/>
<path d="M0 0 C111.87 0 223.74 0 339 0 C339 1.32 339 2.64 339 4 C227.13 4 115.26 4 0 4 C0 2.68 0 1.36 0 0 Z " fill="#DAD2CD" transform="translate(42,239)"/>
<path d="M0 0 C5.42233352 2.85771632 9.50271491 7.77627322 12.109375 13.2265625 C13.54827384 20.42105669 13.12430294 25.83247031 9.734375 32.3515625 C9.074375 33.3415625 8.414375 34.3315625 7.734375 35.3515625 C7.074375 35.3515625 6.414375 35.3515625 5.734375 35.3515625 C5.404375 36.3415625 5.074375 37.3315625 4.734375 38.3515625 C-1.04852415 42.52810077 -7.31843035 43.02002109 -14.265625 42.3515625 C-18.9826974 40.77920503 -22.63421454 38.76288748 -26.265625 35.3515625 C-26.265625 34.6915625 -26.265625 34.0315625 -26.265625 33.3515625 C-26.925625 33.3515625 -27.585625 33.3515625 -28.265625 33.3515625 C-31.43096331 25.21212114 -32.71224087 18.50085067 -29.25 10.171875 C-23.43316846 -0.58464681 -11.16735817 -3.19617493 0 0 Z M-13.265625 11.3515625 C-16.50764065 17.43034184 -16.59841264 22.53557863 -16.265625 29.3515625 C-14.30658755 28.87528275 -12.34841403 28.39544827 -10.390625 27.9140625 C-9.30007812 27.64722656 -8.20953125 27.38039063 -7.0859375 27.10546875 C-4.34077779 26.4729147 -4.34077779 26.4729147 -2.265625 25.3515625 C-2.265625 24.6915625 -2.265625 24.0315625 -2.265625 23.3515625 C-1.275625 23.0215625 -0.285625 22.6915625 0.734375 22.3515625 C0.074375 22.0215625 -0.585625 21.6915625 -1.265625 21.3515625 C-1.53375 20.7740625 -1.801875 20.1965625 -2.078125 19.6015625 C-3.69083177 16.54590757 -5.65278912 14.59981663 -8.265625 12.3515625 C-10.94353396 11.47917392 -10.94353396 11.47917392 -13.265625 11.3515625 Z M4.734375 12.3515625 C5.734375 14.3515625 5.734375 14.3515625 5.734375 14.3515625 Z " fill="#B5AAA7" transform="translate(238.265625,256.6484375)"/>
<path d="M0 0 C0 0.66 0 1.32 0 2 C0.66 2 1.32 2 2 2 C5.10655817 8.34255627 6.04950334 13.28474684 3.8125 20.1875 C2.24631036 23.93620391 0.58774532 25.92708048 -3 28 C-11.82239473 31.23178249 -19.30041677 29.94070419 -28 27 C-28 26.34 -28 25.68 -28 25 C-28.61875 24.7525 -29.2375 24.505 -29.875 24.25 C-32.48308548 22.71583207 -32.91334582 21.80167796 -34 19 C-34.69652479 13.87652435 -35.17417715 8.4611756 -32.90234375 3.69921875 C-24.49973323 -6.76483221 -10.8901705 -6.16009644 0 0 Z " fill="#EE3124" transform="translate(76,28)"/>
<path d="M0 0 C2.12591759 0.95649392 4.17854241 1.95804072 6.20703125 3.10546875 C6.20703125 3.76546875 6.20703125 4.42546875 6.20703125 5.10546875 C6.86703125 5.10546875 7.52703125 5.10546875 8.20703125 5.10546875 C11.28547569 11.39062615 12.19740309 16.34171425 10.20703125 23.23046875 C8.26098122 28.00292478 4.77058547 30.03521733 0.20703125 32.10546875 C-2.35546875 32.91796875 -2.35546875 32.91796875 -4.79296875 33.10546875 C-5.84484375 33.18796875 -6.89671875 33.27046875 -7.98046875 33.35546875 C-13.41946093 32.99881352 -19.23102988 32.29391311 -23.5078125 28.640625 C-27.8842977 23.45227008 -28.14536253 19.69058842 -28.06640625 13.08984375 C-27.69424147 9.02793102 -26.63547794 7.02086279 -23.79296875 4.10546875 C-16.38359761 -0.99363077 -8.79963079 -2.81834329 0 0 Z " fill="#EE3124" transform="translate(272.79296875,24.89453125)"/>
<path d="M0 0 C0.625 3.0625 0.625 3.0625 1 6 C-0.65 6 -2.3 6 -4 6 C-4.33 5.01 -4.66 4.02 -5 3 C-5.99 3 -6.98 3 -8 3 C-8 3.66 -8 4.32 -8 5 C-3.545 6.98 -3.545 6.98 1 9 C1 9.99 1 10.98 1 12 C1.66 12 2.32 12 3 12 C3.59070014 10.05396726 3.59070014 10.05396726 4 8 C3.67 7.67 3.34 7.34 3 7 C3.3125 3.5 3.3125 3.5 4 0 C6.32686453 -1.16343227 7.84721413 -1.19895988 10.4375 -1.25 C11.21996094 -1.27578125 12.00242187 -1.3015625 12.80859375 -1.328125 C15 -1 15 -1 16.76953125 0.109375 C18.59219225 2.9099081 18.32442093 5.19571051 18.25 8.5 C18.23453125 9.6446875 18.2190625 10.789375 18.203125 11.96875 C18 15 18 15 17 18 C13.04432455 19.67544105 9.17745972 20.26983452 5 19.3125 C3 18 3 18 2 15 C1.2884375 15.99 1.2884375 15.99 0.5625 17 C-2.72673533 19.56720806 -4.82318733 19.44043307 -8.87890625 19.43359375 C-11.48968323 18.89989901 -12.41089988 18.11209509 -14 16 C-14.1875 13.3125 -14.1875 13.3125 -14 11 C-12.68 11 -11.36 11 -10 11 C-9.67 11.99 -9.34 12.98 -9 14 C-7.35 14 -5.7 14 -4 14 C-4 13.34 -4 12.68 -4 12 C-4.55429687 11.80664062 -5.10859375 11.61328125 -5.6796875 11.4140625 C-6.40414063 11.15367187 -7.12859375 10.89328125 -7.875 10.625 C-8.95394531 10.24214844 -8.95394531 10.24214844 -10.0546875 9.8515625 C-12 9 -12 9 -14 7 C-13.625 3.375 -13.625 3.375 -13 0 C-8.36084644 -2.31957678 -4.67927393 -2.33963696 0 0 Z M10 2 C9.01 2.66 8.02 3.32 7 4 C7 4.99 7 5.98 7 7 C9.41619823 7.25030977 9.41619823 7.25030977 12 7 C12.66 6.01 13.32 5.02 14 4 C12.68 3.34 11.36 2.68 10 2 Z M7 12 C7.33 13.32 7.66 14.64 8 16 C9.65 15.67 11.3 15.34 13 15 C13.33 13.35 13.66 11.7 14 10 C11.3534665 10 9.4191837 10.98139634 7 12 Z " fill="#07519F" transform="translate(386,271)"/>
<path d="M0 0 C4.089974 3.54464413 5.66141287 6.74481148 6.22265625 12.140625 C6.48728266 18.90585674 4.76724551 23.34913174 1 29 C0.34 29 -0.32 29 -1 29 C-1.33 29.99 -1.66 30.98 -2 32 C-5.43239325 34.57429493 -7.74000716 35.45619833 -12 35 C-14.16796875 33.6796875 -14.16796875 33.6796875 -16.1875 31.875 C-16.86167969 31.29492188 -17.53585938 30.71484375 -18.23046875 30.1171875 C-20 28 -20 28 -22 22 C-17.71 21.01 -13.42 20.02 -9 19 C-9 18.34 -9 17.68 -9 17 C-6.5 14.5 -6.5 14.5 -4 12 C-1.63769894 8.39438259 -0.96848883 4.15066642 0 0 Z " fill="#D8CFCC" transform="translate(245,263)"/>
<path d="M0 0 C2.206875 -0.061875 4.41375 -0.12375 6.6875 -0.1875 C8.54955078 -0.23970703 8.54955078 -0.23970703 10.44921875 -0.29296875 C14.22249998 0.01835808 16.01760696 0.73031118 19 3 C21.81777202 7.42792746 21.65424395 12.93158003 21 18 C19.9696712 20.81690879 18.82633463 22.54749349 17 25 C11.57364835 26.80878388 5.66885438 26.05200784 0 26 C0 17.42 0 8.84 0 0 Z M5 4 C5 9.94 5 15.88 5 22 C11.4502879 22.57320805 11.4502879 22.57320805 14.4375 20.625 C16.86729658 16.54294174 16.74524166 12.62510803 16 8 C14.64237846 5.22435155 14.64237846 5.22435155 12 4 C9.69 4 7.38 4 5 4 Z " fill="#07519F" transform="translate(256,264)"/>
<path d="M0 0 C5 1 5 1 6.80078125 3.06640625 C7.29964844 3.89011719 7.79851563 4.71382813 8.3125 5.5625 C8.82425781 6.38878906 9.33601563 7.21507812 9.86328125 8.06640625 C10.23839844 8.70449219 10.61351562 9.34257812 11 10 C11.5775 9.278125 12.155 8.55625 12.75 7.8125 C13.4925 6.884375 14.235 5.95625 15 5 C15.66 4.071875 16.32 3.14375 17 2.1875 C17.66 1.465625 18.32 0.74375 19 0 C20.32 0 21.64 0 23 0 C23 7.92 23 15.84 23 24 C21.68 24 20.36 24 19 24 C18.67 19.05 18.34 14.1 18 9 C17.05125 10.485 16.1025 11.97 15.125 13.5 C13.5078125 16.03125 13.5078125 16.03125 12 18 C11.34 18 10.68 18 10 18 C8.12422691 15.45349592 6.61674188 12.72293369 5 10 C4.67 14.62 4.34 19.24 4 24 C2.68 24 1.36 24 0 24 C0 16.08 0 8.16 0 0 Z " fill="#07519F" transform="translate(22,265)"/>
<path d="M0 0 C5.33333333 0 10.66666667 0 16 0 C16.9590625 -0.05220703 16.9590625 -0.05220703 17.9375 -0.10546875 C18.9584375 -0.14607422 18.9584375 -0.14607422 20 -0.1875 C21.0209375 -0.23970703 21.0209375 -0.23970703 22.0625 -0.29296875 C24 0 24 0 25.73828125 1.03125 C27.6897564 4.07627624 27.31454617 7.1986167 27.1875 10.6875 C27.16719727 11.7403418 27.16719727 11.7403418 27.14648438 12.81445312 C27.11120182 14.54329829 27.05739583 16.27174765 27 18 C25.68 18 24.36 18 23 18 C22.505 11.565 22.505 11.565 22 5 C20.68 4.67 19.36 4.34 18 4 C16.12175109 5.87824891 16.60897603 9.03935276 16.4375 11.5625 C16.35371094 12.76003906 16.26992187 13.95757812 16.18359375 15.19140625 C16.09271484 16.58166016 16.09271484 16.58166016 16 18 C14.68 18 13.36 18 12 18 C11.67 13.38 11.34 8.76 11 4 C9.35 4.33 7.7 4.66 6 5 C5.67 9.29 5.34 13.58 5 18 C3.35 18 1.7 18 0 18 C0 12.06 0 6.12 0 0 Z " fill="#07519F" transform="translate(68,271)"/>
<path d="M0 0 C2.27947698 3.41921547 2.32513105 4.90310177 2.375 8.9375 C2.40335937 9.97777344 2.43171875 11.01804687 2.4609375 12.08984375 C1.88898547 15.7008968 0.90827146 16.84175644 -2 19 C-4 19.53125 -4 19.53125 -6 19.5 C-6.66 19.5103125 -7.32 19.520625 -8 19.53125 C-10.9685292 18.74273443 -12.15548165 17.42699783 -14 15 C-14.53125 12.125 -14.53125 12.125 -14.5 9 C-14.5103125 7.96875 -14.520625 6.9375 -14.53125 5.875 C-13.87853203 2.34264391 -12.79644461 1.18852187 -10 -1 C-6.00471255 -2.33176248 -3.90144863 -1.41870859 0 0 Z M-6 2 C-8.23024131 3.23513282 -8.23024131 3.23513282 -10 5 C-10 5.66 -10 6.32 -10 7 C-7.36 7 -4.72 7 -2 7 C-2.26676204 5.01508358 -2.26676204 5.01508358 -3 3 C-3.99 2.67 -4.98 2.34 -6 2 Z M-10 11 C-9.20882096 12.99983534 -9.20882096 12.99983534 -8 15 C-7.01 15.33 -6.02 15.66 -5 16 C-4.01 15.34 -3.02 14.68 -2 14 C-2 13.01 -2 12.02 -2 11 C-4.64 11 -7.28 11 -10 11 Z " fill="#07519F" transform="translate(351,271)"/>
<path d="M0 0 C1.32 0 2.64 0 4 0 C4.33 2.31 4.66 4.62 5 7 C5.60328125 6.94199219 6.2065625 6.88398438 6.828125 6.82421875 C13.32587349 6.45741037 13.32587349 6.45741037 16.5625 9.0625 C18.35257383 12.72047696 18.50400717 14.96794262 18 19 C16.84360194 21.31279611 15.82590172 23.17409828 14 25 C9.33154772 25.14426614 4.67134047 25.04208415 0 25 C0 16.75 0 8.5 0 0 Z M5.1875 11.625 C3.58960715 14.8207857 4.04309092 16.61401404 5 20 C5.66 20.66 6.32 21.32 7 22 C10.29714793 21.67028521 11.6226839 21.3773161 14 19 C13.76135558 13.96494948 13.76135558 13.96494948 11 10 C7.09066417 9.55496999 7.09066417 9.55496999 5.1875 11.625 Z " fill="#07519F" transform="translate(99,264)"/>
<path d="M0 0 C1.32 0 2.64 0 4 0 C4.33 3.96 4.66 7.92 5 12 C6.051875 11.01 7.10375 10.02 8.1875 9 C11.59215729 6.05206503 11.59215729 6.05206503 14.9375 5.625 C15.618125 5.74875 16.29875 5.8725 17 6 C16.34 7.32 15.68 8.64 15 10 C14.34 10 13.68 10 13 10 C12.02138736 12.1050479 12.02138736 12.1050479 12 15 C13.1374445 17.18151669 14.44204797 19.13136963 15.87109375 21.1328125 C17 23 17 23 17 26 C14.8125 26.5 14.8125 26.5 12 26 C9.98728161 23.51946058 8.48112914 20.82359938 7 18 C6.34 18.33 5.68 18.66 5 19 C4.59270772 21.32156597 4.25561323 23.6568787 4 26 C2.68 26 1.36 26 0 26 C0 17.42 0 8.84 0 0 Z " fill="#07519F" transform="translate(355,264)"/>
<path d="M0 0 C1.19109375 -0.00386719 1.19109375 -0.00386719 2.40625 -0.0078125 C4.5 0.125 4.5 0.125 6.5 1.125 C7.55885037 4.3015511 7.70049266 6.72488011 7.75 10.0625 C7.77578125 11.10277344 7.8015625 12.14304687 7.828125 13.21484375 C7.45796941 16.49777126 6.8328598 17.81901646 4.5 20.125 C-0.18104691 21.33860476 -3.18664124 21.3470333 -7.5 19.125 C-8.75 12.5 -8.75 12.5 -6.5 9.125 C-6.83 8.795 -7.16 8.465 -7.5 8.125 C-7.1875 4.625 -7.1875 4.625 -6.5 1.125 C-4.13386544 -0.05806728 -2.63219264 -0.00854608 0 0 Z M-1.5 3.125 C-2.49 3.62 -2.49 3.62 -3.5 4.125 C-3.5 5.445 -3.5 6.765 -3.5 8.125 C-1.08380177 8.37530977 -1.08380177 8.37530977 1.5 8.125 C2.16 7.135 2.82 6.145 3.5 5.125 C1.10931266 4.01863605 1.10931266 4.01863605 -1.5 3.125 Z M-3.5 12.125 C-3.83 13.115 -4.16 14.105 -4.5 15.125 C-2.66715557 16.25016085 -2.66715557 16.25016085 -0.5 17.125 C0.49 16.795 1.48 16.465 2.5 16.125 C2.83 14.475 3.16 12.825 3.5 11.125 C1.07202689 11.125 -1.12907005 11.62585685 -3.5 12.125 Z " fill="#07519F" transform="translate(285.5,269.875)"/>
<path d="M0 0 C0.886875 -0.01675781 1.77375 -0.03351563 2.6875 -0.05078125 C3.8321875 0.12904297 3.8321875 0.12904297 5 0.3125 C7.44508878 3.98013317 7.29885724 5.94681775 7.3125 10.3125 C7.32925781 11.55 7.34601563 12.7875 7.36328125 14.0625 C7 17.3125 7 17.3125 5.69140625 19.19921875 C2.89359878 21.04073175 0.297015 21.14196474 -3 21.3125 C-5.9375 20.375 -5.9375 20.375 -8 19.3125 C-8 0.03488372 -8 0.03488372 0 0 Z M-4 5.3125 C-4 6.3025 -4 7.2925 -4 8.3125 C-2.35 8.3125 -0.7 8.3125 1 8.3125 C1.66 6.9925 2.32 5.6725 3 4.3125 C-0.48581856 3.1104936 -0.67992344 3.09911563 -4 5.3125 Z M-4 13.3125 C-3.67 14.6325 -3.34 15.9525 -3 17.3125 C-1.35 16.9825 0.3 16.6525 2 16.3125 C2.33 14.6625 2.66 13.0125 3 11.3125 C0.3534665 11.3125 -1.5808163 12.29389634 -4 13.3125 Z " fill="#07519F" transform="translate(318,269.6875)"/>
<path d="M0 0 C2.5 1.5625 2.5 1.5625 4 4 C4.25 7.75 4.25 7.75 4 11 C0.04 11 -3.92 11 -8 11 C-8 11.66 -8 12.32 -8 13 C-3.22237362 14.01687046 -3.22237362 14.01687046 1.4375 13.0625 C1.953125 12.711875 2.46875 12.36125 3 12 C3.33 13.32 3.66 14.64 4 16 C-0.04037632 18.69358421 -3.25922471 18.65035907 -8 18 C-10.5625 16.625 -10.5625 16.625 -12 14 C-12.72722942 9.39166199 -12.84616124 5.48078218 -10.5 1.375 C-6.94819263 -0.57849405 -3.96174494 -0.78747799 0 0 Z M-6 3 C-6 3.66 -6 4.32 -6 5 C-6.66 5 -7.32 5 -8 5 C-8 5.66 -8 6.32 -8 7 C-5.36 7 -2.72 7 0 7 C-0.66 5.68 -1.32 4.36 -2 3 C-3.32 3 -4.64 3 -6 3 Z " fill="#07519F" transform="translate(132,271)"/>
<path d="M0 0 C2.5 1.5625 2.5 1.5625 4 4 C4.25 7.75 4.25 7.75 4 11 C0.04 11 -3.92 11 -8 11 C-7.01 11.99 -6.02 12.98 -5 14 C-2.51948778 13.73740217 -2.51948778 13.73740217 0 13 C1.32 13 2.64 13 4 13 C4 13.99 4 14.98 4 16 C-0.04037632 18.69358421 -3.25922471 18.65035907 -8 18 C-10.5625 16.625 -10.5625 16.625 -12 14 C-12.72722942 9.39166199 -12.84616124 5.48078218 -10.5 1.375 C-6.94819263 -0.57849405 -3.96174494 -0.78747799 0 0 Z M-6 3 C-6.66 4.32 -7.32 5.64 -8 7 C-5.36 7 -2.72 7 0 7 C-0.66 5.68 -1.32 4.36 -2 3 C-3.32 3 -4.64 3 -6 3 Z " fill="#07519F" transform="translate(61,271)"/>
<path d="M0 0 C3.66262449 0.81465246 5.13193418 2.40542239 7.16015625 5.48046875 C7.97317155 9.95205287 7.4627657 11.92568476 5.28515625 15.91796875 C2.80067304 18.55906695 0.67369313 19.00333495 -2.90234375 19.23046875 C-6.79959404 18.98071948 -7.55746785 18.75612141 -10.46484375 15.91796875 C-12.0354855 11.99136438 -12.52421421 9.66273265 -11.83984375 5.48046875 C-8.64082959 0.63035051 -5.55413317 -0.34307667 0 0 Z M-6.08984375 5.66796875 C-8.13734301 8.33011816 -8.13734301 8.33011816 -7.58984375 11.29296875 C-7.21859375 12.37578125 -7.21859375 12.37578125 -6.83984375 13.48046875 C-6.17984375 13.48046875 -5.51984375 13.48046875 -4.83984375 13.48046875 C-4.83984375 14.14046875 -4.83984375 14.80046875 -4.83984375 15.48046875 C-3.18984375 15.48046875 -1.53984375 15.48046875 0.16015625 15.48046875 C0.16015625 14.82046875 0.16015625 14.16046875 0.16015625 13.48046875 C0.82015625 13.48046875 1.48015625 13.48046875 2.16015625 13.48046875 C3.02865799 11.23171128 3.02865799 11.23171128 3.16015625 8.48046875 C1.52968672 5.6087437 1.52968672 5.6087437 -0.83984375 3.48046875 C-4.00436255 3.13192955 -4.00436255 3.13192955 -6.08984375 5.66796875 Z " fill="#07519F" transform="translate(172.83984375,270.51953125)"/>
<path d="M0 0 C1.87109375 0.296875 1.87109375 0.296875 3.80859375 1.671875 C6.22927214 5.374089 5.98507947 8.62875794 5.93359375 12.921875 C5.92908203 13.62828125 5.92457031 14.3346875 5.91992188 15.0625 C5.9081325 16.80732775 5.89019699 18.552112 5.87109375 20.296875 C4.55109375 20.296875 3.23109375 20.296875 1.87109375 20.296875 C1.81050781 19.39324219 1.74992187 18.48960937 1.6875 17.55859375 C1.56181641 15.78935547 1.56181641 15.78935547 1.43359375 13.984375 C1.35238281 12.81261719 1.27117187 11.64085937 1.1875 10.43359375 C0.98435665 7.27096542 0.98435665 7.27096542 -0.12890625 4.296875 C-1.44890625 4.296875 -2.76890625 4.296875 -4.12890625 4.296875 C-4.45890625 9.576875 -4.78890625 14.856875 -5.12890625 20.296875 C-6.44890625 20.296875 -7.76890625 20.296875 -9.12890625 20.296875 C-9.20980167 17.52545783 -9.26934687 14.75639681 -9.31640625 11.984375 C-9.35411133 10.80584961 -9.35411133 10.80584961 -9.39257812 9.60351562 C-9.40224609 8.84619141 -9.41191406 8.08886719 -9.421875 7.30859375 C-9.43758545 6.61209717 -9.4532959 5.91560059 -9.46948242 5.19799805 C-8.52637545 -0.06649946 -4.47074504 -0.16406404 0 0 Z " fill="#07519F" transform="translate(303.12890625,269.703125)"/>
<path d="M0 0 C0 1.32 0 2.64 0 4 C-1.65 4 -3.3 4 -5 4 C-5 4.99 -5 5.98 -5 7 C-3.35 7 -1.7 7 0 7 C0 7.99 0 8.98 0 10 C-1.65 10 -3.3 10 -5 10 C-5 14.95 -5 19.9 -5 25 C-6.32 25 -7.64 25 -9 25 C-9 20.05 -9 15.1 -9 10 C-9.66 10 -10.32 10 -11 10 C-11 9.01 -11 8.02 -11 7 C-10.34 7 -9.68 7 -9 7 C-8.87625 6.030625 -8.7525 5.06125 -8.625 4.0625 C-8.41875 3.051875 -8.2125 2.04125 -8 1 C-5.29120665 -0.35439668 -2.99066732 -0.06501451 0 0 Z " fill="#07519F" transform="translate(193,264)"/>
<path d="M0 0 C3.63 0 7.26 0 11 0 C11 1.32 11 2.64 11 4 C9.35 4.33 7.7 4.66 6 5 C5.67 9.29 5.34 13.58 5 18 C3.35 18 1.7 18 0 18 C0 12.06 0 6.12 0 0 Z " fill="#07519F" transform="translate(139,271)"/>
<path d="M0 0 C0 1.65 0 3.3 0 5 C-0.64453125 5.18304688 -1.2890625 5.36609375 -1.953125 5.5546875 C-4.37444944 6.90811895 -4.37444944 6.90811895 -4.609375 10.2578125 C-4.65578125 11.53398437 -4.7021875 12.81015625 -4.75 14.125 C-4.80671875 15.40632813 -4.8634375 16.68765625 -4.921875 18.0078125 C-4.94765625 18.99523437 -4.9734375 19.98265625 -5 21 C-6.65 21 -8.3 21 -10 21 C-10.57824288 6.56534437 -10.57824288 6.56534437 -7 2 C-4.49368994 0.6551507 -2.83416976 0 0 0 Z " fill="#07519F" transform="translate(336,269)"/>
</svg>
